<?xml version="1.0" encoding="utf-8"?>
<!-- Generator: Adobe Illustrator 15.0.0, SVG Export Plug-In . SVG Version: 6.00 Build 0)  -->
<!DOCTYPE svg PUBLIC "-//W3C//DTD SVG 1.1//EN" "http://www.w3.org/Graphics/SVG/1.1/DTD/svg11.dtd">
<svg version="1.1" id="图层_1" xmlns="http://www.w3.org/2000/svg" xmlns:xlink="http://www.w3.org/1999/xlink" x="0px" y="0px"
	 width="35px" height="30px" viewBox="0 0 35 30" enable-background="new 0 0 35 30" xml:space="preserve">
<g>
	<path fill="#86BD34" stroke="#D70000" stroke-miterlimit="10" d="M26.264,1.402c0.301,0,0.578,0.164,0.723,0.427l6.662,12.114
		c0.219,0.398,0.072,0.898-0.324,1.118l-1.773,0.976v-3.333c0-1.721-1.4-3.122-3.121-3.122H11.18l14.689-8.078
		C25.991,1.437,26.124,1.402,26.264,1.402 M26.264,0.91c-0.214,0-0.432,0.054-0.634,0.164l-16.364,9H28.43
		c1.449,0,2.629,1.18,2.629,2.63v4.164l2.502-1.376c0.637-0.35,0.867-1.149,0.52-1.785L27.417,1.593
		C27.178,1.157,26.729,0.91,26.264,0.91"/>
	<path fill="none" stroke="#D70000" stroke-width="0.75" stroke-linecap="round" stroke-miterlimit="10" d="M4.756,27.843H28.43
		c0.727,0,1.313-0.588,1.313-1.313v-8.938v-4.887c0-0.726-0.589-1.316-1.313-1.316H6.875H4.756c-0.726,0-1.315,0.59-1.315,1.316
		v13.825C3.441,27.255,4.03,27.843,4.756,27.843z"/>
	<path fill="none" stroke="#D70000" stroke-width="0.75" stroke-linecap="round" stroke-miterlimit="10" d="M27.037,24.95
		c0,0.146-0.117,0.263-0.264,0.263H14.014h-3.436h-4.37c-0.145,0-0.263-0.117-0.263-0.263v-1.461c0-0.146,0.118-0.263,0.263-0.263
		h3.278h8.142h9.146c0.146,0,0.264,0.116,0.264,0.263V24.95z"/>
	<polygon fill="none" stroke="#D70000" stroke-width="0.75" stroke-linecap="round" stroke-miterlimit="10" points="22.582,22.094 
		22.582,21.438 22.582,20.779 26.855,20.779 26.855,21.438 26.855,22.094 	"/>
	<path fill="none" stroke="#D70000" stroke-width="0.75" stroke-linecap="round" stroke-miterlimit="10" d="M19.855,15.276
		c0-0.363,0.295-0.657,0.658-0.657h5.678c0.363,0,0.658,0.294,0.658,0.657v2.512c0,0.362-0.295,0.657-0.658,0.657h-5.678
		c-0.363,0-0.658-0.295-0.658-0.657V15.276z"/>
	<polygon fill="none" stroke="#D70000" stroke-width="0.75" stroke-linecap="round" stroke-miterlimit="10" points="17.097,21.438 
		17.097,20.779 21.371,20.779 21.371,21.168 21.371,21.438 21.371,22.094 19.688,22.094 17.097,22.094 	"/>
</g>
</svg>
