<?xml version="1.0" encoding="utf-8"?>
<!-- Generator: Adobe Illustrator 15.0.0, SVG Export Plug-In . SVG Version: 6.00 Build 0)  -->
<!DOCTYPE svg PUBLIC "-//W3C//DTD SVG 1.1//EN" "http://www.w3.org/Graphics/SVG/1.1/DTD/svg11.dtd">
<svg version="1.1" id="图层_1" xmlns="http://www.w3.org/2000/svg" xmlns:xlink="http://www.w3.org/1999/xlink" x="0px" y="0px"
	 width="48px" height="48px" viewBox="0 0 48 48" enable-background="new 0 0 48 48" xml:space="preserve">
<path fill="#8A8A8A" d="M38.688,35.905c-2.132,0-3.86,1.73-3.86,3.862c0,2.135,1.729,3.859,3.86,3.859
	c2.138,0,3.865-1.725,3.865-3.859C42.553,37.636,40.822,35.905,38.688,35.905L38.688,35.905z M19.374,35.905
	c-2.134,0-3.862,1.73-3.862,3.862c0,2.135,1.728,3.859,3.862,3.859c2.132,0,3.862-1.725,3.862-3.859
	C23.236,37.636,21.506,35.905,19.374,35.905L19.374,35.905z M12.626,10.641L7.479,5.488H1.534c-2.165,0-1.951,3.866,0,3.866h4.661
	l3.862,3.86l6.746,20.113h25.756l5.452-22.686H12.626L12.626,10.641z"/>
</svg>
