<?xml version="1.0" standalone="no"?><!DOCTYPE svg PUBLIC "-//W3C//DTD SVG 1.1//EN" "http://www.w3.org/Graphics/SVG/1.1/DTD/svg11.dtd"><svg t="1483691021669" class="icon" style="" viewBox="0 0 1024 1024" version="1.1" xmlns="http://www.w3.org/2000/svg" p-id="4887" xmlns:xlink="http://www.w3.org/1999/xlink" width="20" height="20"><defs><style type="text/css"></style></defs><path d="M699.159634 562.338479l-175.9882 0L523.171434 319.356468c0-18.744923-13.739932-33.9226-30.700209-33.9226-16.962324 0-30.716582 15.177678-30.716582 33.9226l0 270.476201c0 0.589424 0.014326 1.175779 0.040932 1.759063-0.025583 0.485047-0.040932 0.973164-0.040932 1.463328 0 8.28571 3.632737 15.796778 9.526981 21.319561 5.51255 5.807263 12.971429 9.380648 21.189601 9.380648 0.487094 0 0.970094-0.01535 1.451048-0.040932 0.581238 0.026606 1.165546 0.040932 1.753947 0.040932l203.482391 0c18.744923 0 33.9226-13.739932 33.9226-30.699186S717.903533 562.338479 699.159634 562.338479zM512 55.43966c-249.753227 0-452.205149 202.450898-452.205149 452.205149S262.246773 959.850981 512 959.850981c249.737878 0 452.205149-202.450898 452.205149-452.205149S761.737878 55.43966 512 55.43966zM512 892.857171c-212.741265 0-385.212362-172.471097-385.212362-385.212362 0-212.757638 172.471097-385.212362 385.212362-385.212362S897.212362 294.88717 897.212362 507.644809C897.212362 720.386074 724.740242 892.857171 512 892.857171z" p-id="4888" fill="#8a8a8a"></path></svg>