<?xml version="1.0" encoding="utf-8"?>
<!-- Generator: Adobe Illustrator 15.0.0, SVG Export Plug-In . SVG Version: 6.00 Build 0)  -->
<!DOCTYPE svg PUBLIC "-//W3C//DTD SVG 1.1//EN" "http://www.w3.org/Graphics/SVG/1.1/DTD/svg11.dtd">
<svg version="1.1" id="图层_1" xmlns="http://www.w3.org/2000/svg" xmlns:xlink="http://www.w3.org/1999/xlink" x="0px" y="0px"
	 width="25px" height="25px" viewBox="0 0 25 25" enable-background="new 0 0 25 25" xml:space="preserve">
<path fill="none" stroke="#1A84C7" stroke-width="0.75" stroke-miterlimit="10" d="M9.914,14.391c0-4.12,3.337-7.457,7.457-7.457
	c4.116,0,7.453,3.337,7.453,7.457c0,4.114-3.337,7.453-7.453,7.453C13.251,21.844,9.914,18.505,9.914,14.391z"/>
<path fill="none" stroke="#1A84C7" stroke-width="0.75" stroke-miterlimit="10" d="M12.269,14.391c0-2.817,2.283-5.103,5.103-5.103
	c2.813,0,5.1,2.286,5.1,5.103c0,2.816-2.287,5.101-5.1,5.101C14.552,19.491,12.269,17.207,12.269,14.391z"/>
<path fill="none" stroke="#1A84C7" stroke-width="0.75" stroke-miterlimit="10" d="M11.875,19.491H1.379
	c-0.488,0-0.883,0.396-0.883,0.883v0.589c0,0.486,0.395,0.881,0.883,0.881H15.8l-0.785-0.392"/>
<path fill="none" stroke="#1A84C7" stroke-width="0.75" stroke-miterlimit="10" d="M10.699,17.136H2.163
	c-0.487,0-0.881,0.394-0.881,0.882v0.59c0,0.486,0.394,0.884,0.881,0.884h9.712"/>
<path fill="none" stroke="#1A84C7" stroke-width="0.75" stroke-miterlimit="10" d="M10.306,14.781H2.946
	c-0.486,0-0.882,0.398-0.882,0.883v0.589c0,0.485,0.396,0.883,0.882,0.883h7.753"/>
<path fill="none" stroke="#1A84C7" stroke-width="0.75" stroke-miterlimit="10" d="M10.306,12.426H1.379
	c-0.488,0-0.883,0.397-0.883,0.885v0.59c0,0.488,0.395,0.881,0.883,0.881h8.927"/>
<path fill="none" stroke="#1A84C7" stroke-width="0.75" stroke-miterlimit="10" d="M11.482,10.072H2.163
	c-0.487,0-0.881,0.396-0.881,0.884v0.589c0,0.488,0.394,0.881,0.881,0.881h8.143"/>
<path fill="none" stroke="#1A84C7" stroke-width="0.75" stroke-miterlimit="10" d="M13.839,7.718H1.379
	c-0.488,0-0.883,0.395-0.883,0.883V9.19c0,0.488,0.395,0.881,0.883,0.881h10.104"/>
<path fill="none" stroke="#1A84C7" stroke-width="0.75" stroke-miterlimit="10" d="M15.8,7.327v-1.08
	c0-0.488-0.396-0.882-0.882-0.882H2.163c-0.487,0-0.881,0.395-0.881,0.882v0.589c0,0.488,0.394,0.882,0.881,0.882H14.28"/>
<path fill="none" stroke="#1A84C7" stroke-width="0.75" stroke-miterlimit="10" d="M14.131,3.01H1.378
	c-0.487,0-0.882,0.395-0.882,0.883v0.589c0,0.487,0.395,0.883,0.882,0.883h12.753c0.488,0,0.884-0.396,0.884-0.883V3.893
	C15.015,3.404,14.619,3.01,14.131,3.01z"/>
</svg>
