<?xml version="1.0" encoding="utf-8"?>
<!-- Generator: Adobe Illustrator 16.0.0, SVG Export Plug-In . SVG Version: 6.00 Build 0)  -->
<!DOCTYPE svg PUBLIC "-//W3C//DTD SVG 1.1//EN" "http://www.w3.org/Graphics/SVG/1.1/DTD/svg11.dtd">
<svg version="1.1" id="图层_1" xmlns="http://www.w3.org/2000/svg" xmlns:xlink="http://www.w3.org/1999/xlink" x="0px" y="0px"
	 width="177.406px" height="51.167px" viewBox="0 0 177.406 51.167" enable-background="new 0 0 177.406 51.167"
	 xml:space="preserve">
<path fill-rule="evenodd" clip-rule="evenodd" d="M109.049,3.034V34.53c0,1.149-1.834,1.924-2.754,1.924
	c-0.893,0-2.79-0.807-2.793-1.924V7.576c0-0.386-0.67-1.158-1.004-1.158h-24.68c-0.382,0-1.148,0.75-1.148,1.125v27.03
	c-0.076,1.428-2.15,1.881-3.104,1.881c-0.844,0-2.48-0.606-2.48-1.881V3.009c0-0.2,0.396-0.602,0.594-0.602h36.707
	C108.608,2.407,109.049,2.825,109.049,3.034"/>
<path fill-rule="evenodd" clip-rule="evenodd" d="M66.331,49.255c-0.937-2.806,0.006-3.787,2.237-4.538
	c3.014-1.013,5.967-2.358,8.719-3.954c6.788-3.936,10.175-9.895,9.996-17.83c-0.085-3.713-0.024-7.43-0.017-11.283
	c0.001-0.25,0.507-0.75,0.753-0.75h4.615c0.264,0,0.807,0.565,0.808,0.846c0.02,3.378,0.132,6.627-0.029,9.863
	c-0.479,9.535,4.047,16.011,12.189,20.304c2.042,1.078,4.152,2.164,6.361,2.771c2.495,0.685,3.203,1.959,2.362,4.523
	c-9.176-2.443-17.769-5.844-24.026-13.736C84.403,43.816,75.563,46.765,66.331,49.255"/>
<path fill-rule="evenodd" clip-rule="evenodd" d="M166.135,49.065c-1.037-0.014-1.415-0.988-1.415-1.476
	c0-0.634,0.453-1.79,1.415-1.887c5.901-0.929,5.901-0.929,5.901-7.087c0.001-9.424,0.001-18.849,0.001-28.273V8.208
	c0-0.414-0.911-1.296-1.364-1.296h-30.935c-0.484,0-1.457,0.914-1.457,1.371v40.303c0,0.21-0.346,0.634-0.515,0.634h-4.234
	c-0.181,0-0.546-0.472-0.546-0.708V4.627c0-0.556,1.135-1.67,1.704-1.67h41.223c0.497,0,1.492,0.962,1.492,1.442v13.201
	c0,7.207,0.002,14.412,0,21.619C177.402,48.066,175.338,49.925,166.135,49.065"/>
<path fill-rule="evenodd" clip-rule="evenodd" d="M148.249,23.106c0.815-3.398,1.912-6.759,2.361-10.203
	c0.354-2.694,1.367-3.495,4.682-2.492c-1.394,5.209-2.566,10.529-4.301,15.66c-0.793,2.342-0.616,4.088,0.419,6.195
	c1.531,3.118,4.403,5.897,3.004,10.484c-2.326-3.26-4.411-6.182-6.617-9.275c-2.148,3.06-4.241,6.04-6.335,9.021
	c-0.164,0.255-0.569,0.229-0.758,0.151c-0.165-0.068-0.402-0.403-0.308-0.594c0.598-1.955,0.807-4.154,1.865-5.813
	c2.643-4.145,3.728-7.957,1.489-12.905c-1.767-3.902-2.221-8.394-3.231-12.926c-0.048-0.225,0.437-0.674,0.704-0.674h2.177
	c0.341,0,1.129,0.487,1.185,0.731c0.935,4.211,1.869,8.417,2.804,12.623C147.674,23.095,147.961,23.101,148.249,23.106"/>
<path fill-rule="evenodd" clip-rule="evenodd" d="M155.371,10.42c3.176-1.12,4.415-0.291,4.818,2.704
	c0.453,3.334,1.504,6.586,2.296,9.873c0.273-0.006,0.55-0.011,0.822-0.017c0.914-3.915,1.826-7.829,2.781-11.917
	c0.071-0.302,0.953-0.912,1.355-0.912h1.839c0.354,0,0.958,0.723,0.86,1.083c-1.399,5.236-2.627,10.308-4.235,15.257
	c-0.681,2.086-0.608,3.666,0.331,5.584c1.43,2.918,2.526,5.998,3.717,9.027c0.127,0.322,0.21,1.344-0.213,2.161
	c-2.579-3.676-4.638-6.608-6.836-9.744c-2.058,2.946-4.108,5.885-6.162,8.823c-0.16,0.322-0.415,0.298-0.58,0.254
	c-0.132-0.034-0.354-0.303-0.312-0.486c0.373-1.775,0.619-3.59,1.161-5.312c0.359-1.135,1.084-2.173,1.75-3.187
	c1.735-2.646,2.057-5.091,0.787-8.304C157.666,20.542,156.719,15.405,155.371,10.42"/>
<path fill-rule="evenodd" clip-rule="evenodd" d="M24.208,11.921c0.091-1.242,0.182-2.101,0.208-2.959
	c0.032-1.077,0.007-2.156,0.007-3.591c-3.283,0-6.255,0.112-9.206-0.069c-0.877-0.054-2.553-0.244-2.553-1.432
	c0-1.14,1.602-1.603,2.412-1.611C26.162,2.15,37.25,2.15,48.335,2.251c0.852,0.008,2.541,0.395,2.541,1.509
	c0,1.069-1.826,1.476-2.781,1.538c-3.078,0.199-6.174,0.074-9.495,0.074v6.547c2.581,0,5.198,0.095,7.804-0.029
	c2.098-0.1,2.989,0.594,2.974,2.808c-0.072,10.534,0.007,21.067-0.095,31.6c-0.011,0.988-0.914,2.801-1.385,2.795
	c-1.323-0.016-2.658-0.736-3.951-1.269c-0.88-0.362-1.69-1.247-2.543-1.261c-6.539-0.107-13.083-0.107-19.621,0.002
	c-0.854,0.014-1.666,0.918-2.55,1.283c-1.277,0.529-2.603,1.254-3.907,1.256c-0.517,0.001-1.476-1.711-1.485-2.649
	c-0.106-10.643-0.025-21.287-0.104-31.93c-0.016-2.108,0.851-2.699,2.771-2.627C19.026,11.991,21.55,11.921,24.208,11.921
	 M29.832,14.812c-0.131,1.282-0.266,2.261-0.32,3.246c-0.372,6.567-2.873,11.67-9.422,14.177c-0.477,0.185-0.544,1.443-0.866,2.392
	h24.491c0.053-1.14,0.14-2.109,0.134-3.08c-0.007-0.96-0.106-1.921-0.159-2.776c-0.438-0.173-0.643-0.326-0.844-0.324
	c-10.077,0.036-9.813,0.313-9.752-10.664c0.005-0.964-0.1-1.929-0.16-2.97H29.832z M43.716,37.663H19.564v5.649h24.152V37.663z
	 M43.657,14.915h-5.253v10.392h5.253V14.915z M19.434,28.866c4.147-4.477,4.88-9.025,4.897-13.936h-4.897V28.866z M29.704,5.548
	c-0.61,6.393-1.381,6.6,3.246,5.943V5.548H29.704z"/>
<path fill-rule="evenodd" clip-rule="evenodd" d="M8.328,30.776c4.626,1.215,4.811,1.326,3.306,5.07
	c-1.829,4.549-3.956,8.979-5.931,13.408c-4.566-1.723-4.566-1.925-2.869-5.629C4.751,39.437,6.464,35.156,8.328,30.776"/>
<path fill-rule="evenodd" clip-rule="evenodd" d="M2.507,13.515c0.989,0.771,1.88,1.398,2.692,2.113
	c1.814,1.599,3.714,3.133,5.308,4.934c0.469,0.53,0.208,1.957-0.231,2.669c-0.281,0.454-1.846,0.759-2.319,0.37
	c-2.545-2.09-4.953-4.356-7.286-6.685c-0.356-0.355-1.041-1.628-0.417-2.48C0.896,13.556,1.522,13.374,2.507,13.515"/>
<path fill-rule="evenodd" clip-rule="evenodd" d="M12.507,8.561c-0.504,0.588-0.945,1.442-1.643,1.806
	c-0.504,0.263-1.553,0.121-2.005-0.26C6.761,8.338,4.715,6.494,2.823,4.508C2.412,4.08,2.408,2.75,2.779,2.233
	C3.14,1.728,4.54,1.292,4.921,1.577c2.451,1.839,4.752,3.876,7.082,5.876C12.222,7.644,12.275,8.031,12.507,8.561"/>
</svg>
