<?xml version="1.0" encoding="utf-8"?>
<!-- Generator: Adobe Illustrator 15.0.0, SVG Export Plug-In . SVG Version: 6.00 Build 0)  -->
<!DOCTYPE svg PUBLIC "-//W3C//DTD SVG 1.1//EN" "http://www.w3.org/Graphics/SVG/1.1/DTD/svg11.dtd">
<svg version="1.1" id="图层_1" xmlns="http://www.w3.org/2000/svg" xmlns:xlink="http://www.w3.org/1999/xlink" x="0px" y="0px"
	 width="48px" height="48px" viewBox="0 0 48 48" enable-background="new 0 0 48 48" xml:space="preserve">
<path fill="#D70000" d="M45.723,42.96c0,0.938-0.762,1.7-1.701,1.7c-0.938,0-1.699-0.762-1.699-1.7c0-0.201,0-0.499,0-0.922
	c0-4.263-8.676-10.291-18.639-10.291c-7.92,0-18.78,5.08-18.78,10.122c0,0.494,0,0.89,0,1.091c0,0.938-0.762,1.7-1.701,1.7
	s-1.701-0.762-1.701-1.7c0-0.201,0-1.044,0-2.142c0-2.547,3.785-9.104,14.124-11.541c-3.733-2.553-6.186-6.839-6.186-11.703
	c0-7.829,6.346-14.175,14.174-14.175c7.829,0,14.173,6.346,14.173,14.175c0,4.783-2.376,9.003-6.005,11.57
	c10.447,2.34,13.941,9.229,13.941,11.674C45.723,41.928,45.723,42.759,45.723,42.96z M34.385,17.574
	c0-5.949-4.824-10.772-10.773-10.772c-5.95,0-10.773,4.823-10.773,10.772c0,5.949,4.823,10.771,10.773,10.771
	C29.561,28.346,34.385,23.523,34.385,17.574z"/>
</svg>
