<?xml version="1.0" standalone="no"?><!DOCTYPE svg PUBLIC "-//W3C//DTD SVG 1.1//EN" "http://www.w3.org/Graphics/SVG/1.1/DTD/svg11.dtd"><svg width="50" height="50" viewBox="0 0 50 50" version="1.1" xmlns="http://www.w3.org/2000/svg" xmlns:xlink="http://www.w3.org/1999/xlink"><defs><style type="text/css"><![CDATA[
@font-face { font-family: ifont; src: url(http://at.alicdn.com/t/font_1442373896_4754455.eot?#iefix) format(embedded-opentype), url(http://at.alicdn.com/t/font_1442373896_4754455.woff) format(woff), url(http://at.alicdn.com/t/font_1442373896_4754455.ttf) format(truetype), url(http://at.alicdn.com/t/font_1442373896_4754455.svg#ifont) format(svg); }

]]></style></defs><g class="transform-group"><g transform="scale(0.048828125, 0.048828125)"><path d="M530.432 846.976 238.656 846.976c-42.56 0-77.056-34.496-77.056-76.992L161.6 205.12C161.6 162.624 196.096 128 238.656 128l477.056 0c42.496 0 77.056 34.624 77.056 77.12l0 348.672c0 6.72-5.504 12.288-12.352 12.288S768 560.512 768 553.792L768 205.12c0-28.864-23.36-52.288-52.224-52.288L238.656 152.832c-28.8 0-52.288 23.424-52.288 52.288l0 564.928c0 28.864 23.488 52.224 52.288 52.224l291.776 0c6.784 0 12.352 5.632 12.352 12.352C542.784 841.472 537.28 846.976 530.432 846.976zM718.592 896c-79.296 0-143.872-64.512-143.872-143.872s64.576-143.872 143.872-143.872 143.808 64.512 143.808 143.872S797.888 896 718.592 896zM718.592 633.024c-65.664 0-119.04 53.504-119.04 119.104s53.376 119.104 119.04 119.104c65.6 0 119.04-53.504 119.04-119.104S784.192 633.024 718.592 633.024zM718.656 764.352c-6.848 0-12.352-5.504-12.352-12.352L706.304 678.4c0-6.848 5.504-12.352 12.352-12.352 6.784 0 12.416 5.504 12.416 12.352l0 73.6C731.136 758.848 725.504 764.352 718.656 764.352zM778.304 764.48l-59.84 0c-6.784 0-12.352-5.504-12.352-12.352 0-6.72 5.568-12.352 12.352-12.352l59.84 0c6.784 0 12.352 5.632 12.352 12.352C790.656 758.976 785.152 764.48 778.304 764.48zM462.016 461.504c-2.624 0-5.312-0.832-7.552-2.56C449.088 454.784 448 447.04 452.16 441.6L577.28 278.528c4.224-5.44 11.968-6.4 17.344-2.304 5.376 4.16 6.464 11.968 2.24 17.344L471.808 456.704C469.376 459.904 465.664 461.504 462.016 461.504zM462.016 701.504c-6.848 0-12.352-5.632-12.352-12.48L449.664 453.312 327.104 293.568C322.944 288.192 324.032 280.384 329.344 276.224c5.44-4.096 13.184-3.136 17.344 2.304L471.808 441.6c1.664 2.176 2.56 4.8 2.56 7.488l0 239.872C474.368 695.872 468.8 701.504 462.016 701.504zM590.208 464.704 333.888 464.704c-6.848 0-12.416-5.504-12.416-12.352 0-6.848 5.568-12.416 12.416-12.416l256.32 0c6.784 0 12.416 5.504 12.416 12.416C602.624 459.136 596.992 464.704 590.208 464.704zM610.24 557.312 313.728 557.312c-6.784 0-12.352-5.632-12.352-12.416 0-6.848 5.568-12.352 12.352-12.352l296.512 0c6.848 0 12.352 5.504 12.352 12.352C622.656 551.68 617.152 557.312 610.24 557.312z" fill="#515151"></path></g></g></svg>