<?xml version="1.0" standalone="no"?><!DOCTYPE svg PUBLIC "-//W3C//DTD SVG 1.1//EN" "http://www.w3.org/Graphics/SVG/1.1/DTD/svg11.dtd"><svg width="50" height="50" viewBox="0 0 50 50" version="1.1" xmlns="http://www.w3.org/2000/svg" xmlns:xlink="http://www.w3.org/1999/xlink"><defs><style type="text/css"><![CDATA[
@font-face { font-family: ifont; src: url(http://at.alicdn.com/t/font_1442373896_4754455.eot?#iefix) format(embedded-opentype), url(http://at.alicdn.com/t/font_1442373896_4754455.woff) format(woff), url(http://at.alicdn.com/t/font_1442373896_4754455.ttf) format(truetype), url(http://at.alicdn.com/t/font_1442373896_4754455.svg#ifont) format(svg); }

]]></style></defs><g class="transform-group"><g transform="scale(0.048828125, 0.048828125)"><path d="M514.24 1020.032l-10.752-32 490.688-234.88L994.176 280.256 526.08 509.952l-10.816-32 489.024-238.272 17.92 11.2 0 519.68-7.104 11.264L514.24 1020.032zM514.24 1020.032M1004.16 271.552 527.296 35.84l-135.552 65.92L365.504 77.44l156.352-76.224 11.008 0.064 482.368 238.4L1004.16 271.552zM1004.16 262.016M418.944 178.688l370.176 178.816-29.44 23.808L407.872 207.36l11.072-22.336L418.944 178.688zM418.944 181.952M515.2 1019.904l-482.368-238.272-6.912-11.136L25.92 309.568 61.568 336l0 423.616 446.656 219.648L508.224 496.896 307.776 397.888l20.608-22.336L535.68 477.952l7.04 11.2 0 517.696L515.2 1019.904zM515.2 1019.904M213.76 425.6c-117.312 0-212.8-95.424-212.8-212.8C0.96 95.488 96.448 0 213.76 0c117.312 0 212.8 95.488 212.8 212.8C426.624 330.176 331.072 425.6 213.76 425.6L213.76 425.6zM213.76 24.896c-103.616 0-187.904 84.288-187.904 187.904S110.208 400.704 213.76 400.704c103.616 0 187.904-84.288 187.904-187.904S317.376 24.896 213.76 24.896L213.76 24.896zM213.76 24.896M263.488 249.024 175.36 249.024l0-136.96 24.832 0 0 112.128 63.296 0L263.488 249.024zM263.488 249.024" fill="#515151"></path></g></g></svg>