<?xml version="1.0" standalone="no"?><!DOCTYPE svg PUBLIC "-//W3C//DTD SVG 1.1//EN" "http://www.w3.org/Graphics/SVG/1.1/DTD/svg11.dtd"><svg width="50" height="50" viewBox="0 0 50 50" version="1.1" xmlns="http://www.w3.org/2000/svg" xmlns:xlink="http://www.w3.org/1999/xlink"><defs><style type="text/css"><![CDATA[
@font-face { font-family: ifont; src: url(http://at.alicdn.com/t/font_1442373896_4754455.eot?#iefix) format(embedded-opentype), url(http://at.alicdn.com/t/font_1442373896_4754455.woff) format(woff), url(http://at.alicdn.com/t/font_1442373896_4754455.ttf) format(truetype), url(http://at.alicdn.com/t/font_1442373896_4754455.svg#ifont) format(svg); }

]]></style></defs><g class="transform-group"><g transform="scale(0.048828125, 0.048828125)"><path d="M326.788123 784.240771c-57.045696 0-109.000619-49.594637-109.000619-104.042792L217.787504 381.887708c0-55.237643 48.28564-101.90749 105.437692-101.90749 9.191616 0 16.667218 7.471511 16.667218 16.663127 0 9.187525-7.475602 16.663127-16.667218 16.663127-39.083798 0-72.105301 31.401619-72.105301 68.57919l0 298.310272c0 36.351266 36.770554 70.722673 75.668229 70.722673l383.568951 0c35.046359 0 61.475834-30.403509 61.475834-70.722673L771.832908 381.883617c0-38.455888-29.35222-68.57919-66.824315-68.57919-9.187525 0-16.663127-7.473557-16.663127-16.663127 0-9.187525 7.473557-16.663127 16.663127-16.663127 56.158032 0 100.15057 44.757483 100.15057 101.90749l0 298.310272c0 59.315988-40.760951 104.042792-94.808224 104.042792L326.784032 784.238726 326.788123 784.238726zM345.251122 479.514367c-9.187525 0-16.663127-7.473557-16.663127-16.667218 0-9.187525 7.473557-16.663127 16.663127-16.663127l41.55453 0c9.187525 0 16.663127 7.473557 16.663127 16.663127 0 9.191616-7.473557 16.667218-16.663127 16.667218L345.251122 479.514367 345.251122 479.514367zM483.76145 479.514367c-9.191616 0-16.663127-7.473557-16.663127-16.667218 0-9.187525 7.471511-16.663127 16.663127-16.663127l41.55044 0c9.191616 0 16.663127 7.473557 16.663127 16.663127 0 9.191616-7.471511 16.667218-16.663127 16.667218L483.76145 479.514367 483.76145 479.514367zM636.126697 479.514367c-9.18548 0-16.663127-7.473557-16.663127-16.667218 0-9.187525 7.477647-16.663127 16.663127-16.663127l41.55044 0c9.191616 0 16.667218 7.473557 16.667218 16.663127 0 9.191616-7.475602 16.667218-16.667218 16.667218L636.126697 479.514367 636.126697 479.514367zM345.251122 562.619337c-9.187525 0-16.663127-7.471511-16.663127-16.663127 0-9.191616 7.473557-16.663127 16.663127-16.663127l41.55453 0c9.187525 0 16.663127 7.473557 16.663127 16.663127 0 9.191616-7.473557 16.663127-16.663127 16.663127L345.251122 562.619337 345.251122 562.619337zM483.76145 562.619337c-9.191616 0-16.663127-7.471511-16.663127-16.663127 0-9.191616 7.471511-16.663127 16.663127-16.663127l41.55044 0c9.191616 0 16.663127 7.473557 16.663127 16.663127 0 9.191616-7.471511 16.663127-16.663127 16.663127L483.76145 562.619337 483.76145 562.619337zM636.126697 562.619337c-9.18548 0-16.663127-7.471511-16.663127-16.663127 0-9.191616 7.477647-16.663127 16.663127-16.663127l41.55044 0c9.191616 0 16.667218 7.473557 16.667218 16.663127 0 9.191616-7.475602 16.663127-16.667218 16.663127L636.126697 562.619337 636.126697 562.619337zM345.251122 645.732488c-9.187525 0-16.663127-7.475602-16.663127-16.663127 0-9.191616 7.473557-16.667218 16.663127-16.667218l41.55453 0c9.187525 0 16.663127 7.473557 16.663127 16.667218 0 9.187525-7.473557 16.663127-16.663127 16.663127L345.251122 645.732488 345.251122 645.732488zM483.76145 645.732488c-9.191616 0-16.663127-7.475602-16.663127-16.663127 0-9.191616 7.471511-16.667218 16.663127-16.667218l41.55044 0c9.191616 0 16.663127 7.473557 16.663127 16.667218 0 9.187525-7.471511 16.663127-16.663127 16.663127L483.76145 645.732488 483.76145 645.732488zM636.126697 645.732488c-9.18548 0-16.663127-7.475602-16.663127-16.663127 0-9.191616 7.477647-16.667218 16.663127-16.667218l41.55044 0c9.191616 0 16.667218 7.473557 16.667218 16.667218 0 9.187525-7.475602 16.663127-16.667218 16.663127L636.126697 645.732488 636.126697 645.732488zM317.54742 313.302382c-9.191616 0-16.667218-7.473557-16.667218-16.663127 0-9.191616 7.475602-16.663127 16.667218-16.663127l373.984636 0c9.187525 0 16.663127 7.471511 16.663127 16.663127 0 9.187525-7.473557 16.663127-16.663127 16.663127L317.54742 313.302382 317.54742 313.302382zM386.805652 354.852822c-9.187525 0-16.663127-7.475602-16.663127-16.663127l0-83.113151c0-9.187525 7.475602-16.663127 16.663127-16.663127 9.191616 0 16.667218 7.473557 16.667218 16.663127l0 83.113151C403.470824 347.38131 395.997268 354.852822 386.805652 354.852822L386.805652 354.852822zM636.126697 354.852822c-9.18548 0-16.663127-7.475602-16.663127-16.663127l0-83.113151c0-9.187525 7.477647-16.663127 16.663127-16.663127 9.191616 0 16.667218 7.473557 16.667218 16.663127l0 83.113151C652.793915 347.38131 645.320358 354.852822 636.126697 354.852822L636.126697 354.852822zM636.126697 354.852822M511.471288 1022.654187c-281.947805 0-511.327094-229.379289-511.327094-511.327094s229.379289-511.327094 511.327094-511.327094 511.327094 229.379289 511.327094 511.327094S793.419092 1022.654187 511.471288 1022.654187zM511.471288 30.990512c-264.863344 0-480.336581 215.473237-480.336581 480.336581s215.473237 480.336581 480.336581 480.336581 480.336581-215.473237 480.336581-480.336581S776.336677 30.990512 511.471288 30.990512z" fill="#515151"></path></g></g></svg>