<?xml version="1.0" standalone="no"?><!DOCTYPE svg PUBLIC "-//W3C//DTD SVG 1.1//EN" "http://www.w3.org/Graphics/SVG/1.1/DTD/svg11.dtd"><svg width="50" height="50" viewBox="0 0 50 50" version="1.1" xmlns="http://www.w3.org/2000/svg" xmlns:xlink="http://www.w3.org/1999/xlink"><defs><style type="text/css"><![CDATA[
@font-face { font-family: ifont; src: url(http://at.alicdn.com/t/font_1442373896_4754455.eot?#iefix) format(embedded-opentype), url(http://at.alicdn.com/t/font_1442373896_4754455.woff) format(woff), url(http://at.alicdn.com/t/font_1442373896_4754455.ttf) format(truetype), url(http://at.alicdn.com/t/font_1442373896_4754455.svg#ifont) format(svg); }

]]></style></defs><g class="transform-group"><g transform="scale(0.048828125, 0.048828125)"><path d="M693.795463 139.67004c-31.580253 0-63.646576 10.742668-93.28971 21.831214l-59.31492 33.635051c0 0 13.542434 18.518772 19.279089 25.210172l57.662281-32.490995c21.141506-6.585999 53.41863-16.083304 75.683726-16.083304 121.466446 0 230.515071 105.996103 230.515071 227.461525 0 58.123792-28.116361 123.848703-69.586868 168.422897-6.922666 7.440459-13.222139 14.262842-20.886703 20.323884-59.69252 47.25935-254.758218 204.721615-303.289538 243.419985-6.644327 5.293563-9.927093 7.91118-11.80486 9.077749l0.496304-0.058328-9.225105 7.341199-9.218966-5.294586c0 0-259.247462-211.437573-327.791581-265.74341-58.032718-45.818535-82.189907-128.374786-76.638471-201.915709 8.374738-109.513206 107.650789-196.655915 217.364563-202.688305 4.227278-0.237407 8.507768-0.36839 12.729929-0.36839 64.432475 0 132.760676 31.419594 175.076434 80.986499l295.627021 275.576359 2.934842-3.409656c7.893784-9.150404 5.758144-7.605212 13.873985-15.610536l2.38021-2.342348L526.140045 231.862765c-50.009997-58.600653-122.780371-92.229564-199.663412-92.229564-4.998851 0-9.996678 0.12689-15.051811 0.406253C180.532703 147.254785 74.354452 251.194042 64.448848 381.811916c-6.697539 87.563288 30.567179 172.473143 99.66593 227.111554 24.935925 19.773346 285.431821 227.326449 343.647711 273.721105l2.291183 1.826602 8.92937-7.120165c68.100004-54.28844 306.516022-244.26319 337.061712-268.449032 63.805188-50.483788 104.497982-125.799124 104.497982-206.613708C960.558086 257.485329 838.635245 139.67004 693.795463 139.67004L693.795463 139.67004zM693.795463 139.67004M893.65535 577.815985" fill="#515151"></path></g></g></svg>