<?xml version="1.0" standalone="no"?><!DOCTYPE svg PUBLIC "-//W3C//DTD SVG 1.1//EN" "http://www.w3.org/Graphics/SVG/1.1/DTD/svg11.dtd"><svg width="50" height="50" viewBox="0 0 50 50" version="1.1" xmlns="http://www.w3.org/2000/svg" xmlns:xlink="http://www.w3.org/1999/xlink"><defs><style type="text/css"><![CDATA[
@font-face { font-family: ifont; src: url(http://at.alicdn.com/t/font_1442373896_4754455.eot?#iefix) format(embedded-opentype), url(http://at.alicdn.com/t/font_1442373896_4754455.woff) format(woff), url(http://at.alicdn.com/t/font_1442373896_4754455.ttf) format(truetype), url(http://at.alicdn.com/t/font_1442373896_4754455.svg#ifont) format(svg); }

]]></style></defs><g class="transform-group"><g transform="scale(0.048828125, 0.048828125)"><path d="M511.994372 0.052189c-282.755876 0-511.973394 229.218542-511.973394 511.974417S229.238496 1024 511.994372 1024c282.753829 0 511.973394-229.217519 511.973394-511.973394S794.748201 0.052189 511.994372 0.052189zM719.99773 415.988296 707.200262 415.988296l-153.597237 332.789409c-6.398734 15.999392-22.400173 28.79993-41.59842 28.79993-19.198248 0-35.198663-12.800537-41.59842-28.79993l-179.195242-332.789409L275.211551 415.988296c-15.999392 0-28.798906-12.800537-28.798906-28.79993 0-16.000416 12.798491-28.798906 28.798906-28.798906l115.196649 0c15.999392 0 28.798906 12.798491 28.798906 28.798906 0 15.999392-12.799514 28.79993-28.798906 28.79993L361.609293 415.988296l159.996994 294.39189c0 3.197832 0 6.40078 3.196809 6.40078 0 0-3.196809-3.202948-3.196809-9.600659-6.399757-6.40078-9.601682-15.998369-9.601682-15.998369l9.601682 15.998369 3.196809 9.600659 127.999233-300.791647-15.999392 0c-16.002462 0-28.79993-12.800537-28.79993-28.79993 0-16.000416 12.797467-28.798906 28.79993-28.798906l83.194794 0c15.999392 0 28.79993 12.798491 28.79993 28.798906C748.796636 403.187759 735.996099 415.988296 719.99773 415.988296z" fill="#ea8010"></path></g></g></svg>