<?xml version="1.0" standalone="no"?><!DOCTYPE svg PUBLIC "-//W3C//DTD SVG 1.1//EN" "http://www.w3.org/Graphics/SVG/1.1/DTD/svg11.dtd"><svg class="icon" style="" viewBox="0 0 1024 1024" version="1.1" xmlns="http://www.w3.org/2000/svg" p-id="4661" xmlns:xlink="http://www.w3.org/1999/xlink" width="50" height="50"><defs><style type="text/css"><![CDATA[

]]></style></defs><path d="M519.568 436.813c-45.955 0-83.442 37.353-83.442 83.283 0 45.955 37.463 83.31 83.442 83.31 45.936 0 83.434-37.353 83.434-83.31 0-22.167-8.629-43.105-24.382-58.766-15.883-15.883-36.857-24.518-59.018-24.518z" p-id="4662" fill="#33455f"></path><path d="M828.662 565.675c0 29.618-25.801 54.663-56.384 54.663h-9.714l6.859 6.839c10.341 10.341 15.91 24.046 15.91 38.717s-5.732 28.369-15.91 38.706l-65.286 65.154c-10.341 10.341-24.046 15.903-38.717 15.903s-28.369-5.727-38.717-15.903l-7.004-6.859v9.714c0 30.591-24.996 56.384-54.649 56.384h-92.201c-29.618 0-54.782-25.801-54.782-56.384v-9.714l-7.004 6.859c-10.341 10.341-24.046 15.903-38.717 15.903s-28.369-5.727-38.717-15.903l-65.286-65.154c-10.341-10.341-15.91-24.046-15.91-38.706s5.727-28.381 15.91-38.717l6.839-6.839h-9.714c-30.591 0-56.366-24.996-56.366-54.663v-92.199c0-29.618 25.795-54.649 56.366-54.649h9.714l-6.839-6.859c-10.341-10.341-15.91-24.046-15.91-38.717 0-14.653 5.727-28.369 15.91-38.694l65.286-65.154c10.341-10.341 24.046-15.91 38.717-15.91s28.369 5.761 38.717 15.91l7.004 7.004v-9.714c0-30.879 24.996-57.164 54.782-57.164h92.201c29.618 0 54.649 26.135 54.649 57.164v9.714l7.004-6.859c10.341-10.341 24.046-15.91 38.717-15.91s28.369 5.727 38.717 15.91l65.286 65.154c10.341 10.341 15.91 24.029 15.91 38.717 0 14.653-5.732 28.311-15.91 38.706l-6.859 6.859h9.714c30.59 0 56.384 24.996 56.384 54.649v92.030zM519.048 34.316c-267.77 0-484.881 217.107-484.881 484.881 0 267.764 217.107 484.881 484.881 484.881s484.881-217.121 484.881-484.881c0-267.77-217.107-484.881-484.881-484.881z" p-id="4663" fill="#33455f"></path><path d="M519.058 648.983c-71.504 0-129.667-58.016-129.667-129.513 0-71.321 58.165-129.472 129.667-129.472 34.614 0 67.088 13.442 91.582 37.927 24.502 24.481 38.102 56.993 38.102 91.441 0 71.613-58.181 129.639-129.667 129.639zM748.525 454.358h-22.089c-8.33 0-15.87-5.038-19.013-12.849-3.179-7.676-1.437-16.453 4.462-22.357l15.717-15.613c4.303-4.303 6.779-10.247 6.779-16.619 0-6.206-2.455-12.102-6.779-16.564l-59.169-59.037c-8.775-8.807-24.382-8.807-33.181 0l-15.74 15.613c-5.635 5.771-14.848 7.667-22.357 4.462-7.807-3.179-12.71-10.688-12.71-19.037v-22.089c0-13.418-11.093-25.669-23.538-25.669h-83.525c-12.269 0-23.553 12.259-23.553 25.669v22.089c0 8.369-5.038 15.878-12.866 19.037-7.489 3.003-16.591 1.29-22.357-4.462l-15.74-15.743c-8.775-8.775-24.382-8.775-33.181 0l-59.184 59.037c-4.462 4.3-6.779 10.236-6.779 16.591 0 6.206 2.455 12.102 6.779 16.434l15.613 15.63c5.923 5.917 7.667 14.688 4.462 22.487-3.179 7.804-10.65 12.878-19.013 12.878h-22.081c-13.271 0-24.958 10.96-24.958 23.387v83.53c0 12.436 11.691 23.394 24.958 23.394h22.081c8.369 0 15.878 4.896 19.013 12.71 3.185 7.916 1.436 16.707-4.462 22.527l-15.45 15.686c-4.303 4.303-6.759 10.247-6.759 16.619 0 6.171 2.455 12.083 6.759 16.553l59.169 59.051c8.807 8.807 24.382 8.807 33.181 0l15.613-15.613c3.892-3.888 9.107-6.074 14.582-6.074 2.737 0 5.515 0.583 7.916 1.591 7.66 3.185 12.695 10.688 12.695 19.037v22.089c0 13.25 10.96 24.954 23.553 24.954h83.68c12.528 0 23.553-11.691 23.553-24.954v-22.089c0-8.356 5.038-15.878 12.695-19.037 7.206-3.003 16.711-1.263 22.508 4.462l15.595 15.613c8.807 8.807 24.396 8.807 33.181 0l59.169-59.051c4.352-4.3 6.779-10.22 6.779-16.553s-2.455-12.117-6.779-16.619l-15.87-15.613c-5.929-5.923-7.66-14.688-4.462-22.487 3.179-7.667 10.688-12.71 19.013-12.71h22.089c13.265 0 24.954-10.985 24.954-23.387v-83.572c-0.001-12.436-11.691-23.387-24.958-23.387z" p-id="4664" fill="#33455f"></path></svg>