<?xml version="1.0" standalone="no"?><!DOCTYPE svg PUBLIC "-//W3C//DTD SVG 1.1//EN" "http://www.w3.org/Graphics/SVG/1.1/DTD/svg11.dtd"><svg width="50" height="50" viewBox="0 0 50 50" version="1.1" xmlns="http://www.w3.org/2000/svg" xmlns:xlink="http://www.w3.org/1999/xlink"><defs><style type="text/css"><![CDATA[
@font-face { font-family: ifont; src: url(http://at.alicdn.com/t/font_1442373896_4754455.eot?#iefix) format(embedded-opentype), url(http://at.alicdn.com/t/font_1442373896_4754455.woff) format(woff), url(http://at.alicdn.com/t/font_1442373896_4754455.ttf) format(truetype), url(http://at.alicdn.com/t/font_1442373896_4754455.svg#ifont) format(svg); }

]]></style></defs><g class="transform-group"><g transform="scale(0.048828125, 0.048828125)"><path d="M512.694889 58.760752c-248.340025 0-449.611164 201.271338-449.611164 449.611363S264.354863 957.983479 512.694889 957.983479 962.306052 756.712141 962.306052 508.372116 760.946974 58.760752 512.694889 58.760752zM779.827173 741.34456l-20.90003 0c0-12.821107-8.605765-23.271022-19.231361-23.271022s-19.231361 10.362174-19.231361 23.271022l-37.584718 0c0-12.821107-8.605765-23.271022-19.231361-23.271022-10.625596 0-19.231361 10.362174-19.231361 23.271022l-37.584718 0c0-12.821107-8.605765-23.271022-19.231361-23.271022-10.625596 0-19.231361 10.362174-19.231361 23.271022L530.784624 741.34456c0-12.821107-8.605765-23.271022-19.231361-23.271022-10.625596 0-19.231361 10.362174-19.231361 23.271022l-37.584718 0c0-12.821107-8.605765-23.271022-19.231361-23.271022s-19.231361 10.362174-19.231361 23.271022l-37.584718 0c0-12.821107-8.605765-23.271022-19.231361-23.271022s-19.231361 10.362174-19.231361 23.271022l-37.584718 0c0-12.821107-8.605765-23.271022-19.231361-23.271022s-19.231361 10.362174-19.231361 23.271022l-19.231361 0 0-425.989179c0-17.562892 14.225955-31.876788 31.876788-31.876788l470.686874 0c17.562892 0 31.876788 14.225955 31.876788 31.876788l0 425.989179L779.827173 741.34456zM321.610044 552.98207l380.852382 0 0-190.382321L321.610044 362.599749 321.610044 552.98207zM588.215486 400.008786l76.13538 0 0 38.11156-76.13538 0L588.215486 400.008786zM588.215486 476.495328l76.13538 0 0 38.11156-76.13538 0L588.215486 476.495328zM359.721605 400.008786l190.382321 0 0 38.11156-190.382321 0L359.721605 400.008786zM359.721605 476.495328l190.382321 0 0 38.11156-190.382321 0L359.721605 476.495328zM321.961206 609.798149l151.743718 0 0 38.11156-151.743718 0L321.961206 609.798149z" fill="#33475f"></path></g></g></svg>