<?xml version="1.0" standalone="no"?><!DOCTYPE svg PUBLIC "-//W3C//DTD SVG 1.1//EN" "http://www.w3.org/Graphics/SVG/1.1/DTD/svg11.dtd"><svg class="icon" style="" viewBox="0 0 1024 1024" version="1.1" xmlns="http://www.w3.org/2000/svg" p-id="1112" xmlns:xlink="http://www.w3.org/1999/xlink" width="50" height="50"><defs><style type="text/css"><![CDATA[

]]></style></defs><path d="M680.876222 623.174032c-26.050306 0-50.216705 0-74.105788 0 0 26.103518 0 49.800219 0 75.604932 26.542516 0 51.869345 0 78.776158 0 0 17.055444 0 32.017204 0 52.281737 31.564903-33.333176 59.654658-62.996776 85.450161-90.236164-30.717605-30.860868-60.0824-60.363809-90.12053-90.543156C680.876222 586.67884 680.876222 603.780333 680.876222 623.174032z" p-id="1113" fill="#f4c600"></path><path d="M512 65.043389c-246.847038 0-446.955588 200.10855-446.955588 446.955588S265.152962 958.955588 512 958.955588s446.955588-200.10855 446.955588-446.955588S758.847038 65.043389 512 65.043389zM560.276517 807.169603c-49.630351 0-99.354845 1.89107-148.862399-0.564865-44.010353-2.182712-87.959308-7.986905-131.600247-14.45113-33.17968-4.913916-51.486628-29.244045-51.492768-62.735833-0.01228-57.766658 18.412348-84.952834 72.652693-106.833167 25.286919-10.200316 50.761104-19.940145 75.994812-30.269397 27.91784-11.429307 34.609239-33.021068 19.202341-59.100026-7.477298-12.657274-13.970176-25.89374-21.251-38.673811-2.323928-4.079922-5.14723-8.293897-8.766664-11.148921-22.720468-17.921161-27.79709-41.439808-24.278963-68.849064 1.75497-13.674441 2.704598-28.14399 0.220011-41.549302-10.4367-56.317657 13.919011-114.458845 61.516052-142.854569 27.836999-16.607236 55.785537-20.192901 84.343967-1.172709 14.090926 9.384741 28.719088 15.396665 47.034223 14.986319 28.54001-0.639566 51.733245 24.978904 54.462402 57.296961 1.554402 18.411325 1.375324 36.986379 1.540076 55.491849 0.232291 26.099425 1.179872 52.264341-0.285502 78.282924-1.217734 21.620413-7.820106 41.805128-27.877931 54.524824-2.183735 1.384533-4.216022 3.810792-5.169743 6.211469-17.891486 45.022403-39.900755 88.972381-52.271504 135.481647-15.326057 57.615209 3.325745 109.868293 43.457768 153.999396 4.585435 5.04183 9.141194 10.111289 13.71128 15.167444C561.795103 802.662963 561.03581 804.916283 560.276517 807.169603zM685.461657 802.830785c-79.446423-0.459464-144.667867-66.261123-144.393621-145.675824 0.275269-79.582523 65.717747-144.689357 145.238872-144.494928 79.671551 0.194428 144.370085 65.448618 144.164401 145.401578C830.266647 737.713718 764.581646 803.289226 685.461657 802.830785z" p-id="1114" fill="#f4c600"></path></svg>