<?xml version="1.0" encoding="utf-8"?>
<!-- Generator: Adobe Illustrator 15.0.0, SVG Export Plug-In . SVG Version: 6.00 Build 0)  -->
<!DOCTYPE svg PUBLIC "-//W3C//DTD SVG 1.1//EN" "http://www.w3.org/Graphics/SVG/1.1/DTD/svg11.dtd">
<svg version="1.1" id="图层_1" xmlns="http://www.w3.org/2000/svg" xmlns:xlink="http://www.w3.org/1999/xlink" x="0px" y="0px"
	 width="35px" height="30px" viewBox="0 0 35 30" enable-background="new 0 0 35 30" xml:space="preserve">
<g>
	<path fill="none" stroke="#D70000" stroke-width="0.75" stroke-linecap="round" stroke-miterlimit="10" d="M30.637,27.762H5.481
		c-0.417,0-0.756-0.339-0.756-0.757V10.964c0-0.417,0.339-0.755,0.756-0.755h25.156c0.418,0,0.756,0.339,0.756,0.755v16.041
		C31.393,27.423,31.055,27.762,30.637,27.762z"/>
	<path fill="none" stroke="#D70000" stroke-width="0.75" stroke-linecap="round" stroke-miterlimit="10" d="M4.831,10.47
		l4.098-7.608c0.208-0.385,0.61-0.625,1.048-0.624l15.927,0.05c0.43,0.001,0.822,0.235,1.031,0.608l4.17,7.478
		c0.162,0.277-0.265-0.116-0.584-0.113L5.217,10.47C4.997,10.471,4.724,10.662,4.831,10.47z"/>
	
		<line fill="none" stroke="#D70000" stroke-width="0.75" stroke-linecap="round" stroke-miterlimit="10" x1="18.473" y1="2.397" x2="18.473" y2="10.255"/>
	
		<line fill="none" stroke="#D70000" stroke-width="0.75" stroke-linecap="round" stroke-miterlimit="10" x1="13.234" y1="15.494" x2="22.663" y2="15.494"/>
</g>
</svg>
