<?xml version="1.0" encoding="utf-8"?>
<!-- Generator: Adobe Illustrator 16.0.0, SVG Export Plug-In . SVG Version: 6.00 Build 0)  -->
<!DOCTYPE svg PUBLIC "-//W3C//DTD SVG 1.1//EN" "http://www.w3.org/Graphics/SVG/1.1/DTD/svg11.dtd">
<svg version="1.1" id="图层_1" xmlns="http://www.w3.org/2000/svg" xmlns:xlink="http://www.w3.org/1999/xlink" x="0px" y="0px"
	 width="128px" height="128px" viewBox="0 0 128 128" enable-background="new 0 0 128 128" xml:space="preserve">
<g>
	<path d="M112.313,74.671H15.695c-1.777,0-3.227-0.729-3.227-1.633c0-0.902,1.45-1.635,3.227-1.635h96.617
		c1.776,0,3.219,0.732,3.219,1.635C115.531,73.941,114.089,74.671,112.313,74.671L112.313,74.671z"/>
	<path d="M112.313,92.787H15.695c-1.777,0-3.227-0.73-3.227-1.634c0-0.902,1.45-1.635,3.227-1.635h96.617
		c1.776,0,3.219,0.732,3.219,1.635C115.531,92.057,114.089,92.787,112.313,92.787L112.313,92.787z"/>
	<path d="M65.572,13.859l0.124,96.617c0.002,1.777-0.727,3.228-1.628,3.23c-0.903,0-1.637-1.449-1.639-3.227l-0.125-96.616
		c-0.001-1.776,0.729-3.221,1.631-3.222C64.836,10.64,65.568,12.082,65.572,13.859L65.572,13.859z"/>
	<path d="M65.572,13.859l0.124,96.617c0.002,1.777-0.727,3.228-1.628,3.23c-0.903,0-1.637-1.449-1.639-3.227l-0.125-96.616
		c-0.001-1.776,0.729-3.221,1.631-3.222C64.836,10.64,65.568,12.082,65.572,13.859L65.572,13.859z"/>
	<path d="M83.688,13.836l0.124,96.616c0.002,1.777-0.727,3.228-1.63,3.229c-0.901,0-1.636-1.448-1.639-3.225L80.419,13.84
		c-0.001-1.776,0.729-3.221,1.631-3.222C82.951,10.617,83.685,12.059,83.688,13.836L83.688,13.836z"/>
	<path d="M83.688,13.836l0.124,96.616c0.002,1.777-0.727,3.228-1.63,3.229c-0.901,0-1.636-1.448-1.639-3.225L80.419,13.84
		c-0.001-1.776,0.729-3.221,1.631-3.222C82.951,10.617,83.685,12.059,83.688,13.836L83.688,13.836z"/>
	<path d="M47.454,13.882l0.125,96.616c0.002,1.777-0.727,3.229-1.629,3.229c-0.903,0.001-1.636-1.447-1.638-3.225l-0.126-96.616
		c-0.001-1.777,0.728-3.221,1.63-3.222C46.72,10.664,47.451,12.106,47.454,13.882L47.454,13.882z"/>
	<path d="M47.454,13.882l0.125,96.616c0.002,1.777-0.727,3.229-1.629,3.229c-0.903,0.001-1.636-1.447-1.638-3.225l-0.126-96.616
		c-0.001-1.777,0.728-3.221,1.63-3.222C46.72,10.664,47.451,12.106,47.454,13.882L47.454,13.882z"/>
</g>
</svg>
