<?xml version="1.0" encoding="utf-8"?>
<!-- Generator: Adobe Illustrator 16.0.0, SVG Export Plug-In . SVG Version: 6.00 Build 0)  -->
<!DOCTYPE svg PUBLIC "-//W3C//DTD SVG 1.1//EN" "http://www.w3.org/Graphics/SVG/1.1/DTD/svg11.dtd">
<svg version="1.1" id="图层_1" xmlns="http://www.w3.org/2000/svg" xmlns:xlink="http://www.w3.org/1999/xlink" x="0px" y="0px"
	 width="128px" height="128px" viewBox="0 0 128 128" enable-background="new 0 0 128 128" xml:space="preserve">
<path d="M60.947,79.438c0.28,0,0.56-0.012,0.839,0.004c0.531,0.03,1.222-0.118,1.558,0.158c0.838,0.691,1.65,1.5,1.932,2.611
	c0.095,0.373-0.007,0.869-0.185,1.226c-0.654,1.313-1.235,2.678-2.277,3.764c-0.093,0.098-0.085,0.342-0.051,0.505
	c0.719,3.369,1.431,6.741,2.186,10.105c0.247,1.102,0.051,2.049-0.633,2.937c-0.737,0.957-1.583,1.781-2.631,2.389
	c-0.496,0.289-0.988,0.311-1.478-0.002c-1.431-0.912-2.408-2.234-3.089-3.737c-0.23-0.506-0.124-1.223-0.01-1.812
	c0.633-3.313,1.307-6.616,1.988-9.918c0.075-0.362-0.01-0.59-0.19-0.908c-0.753-1.326-1.456-2.682-2.121-4.056
	c-0.114-0.236-0.046-0.666,0.102-0.903c0.473-0.753,1.011-1.468,1.557-2.171c0.1-0.127,0.358-0.177,0.546-0.182
	C59.642,79.426,60.294,79.438,60.947,79.438z M60.891,100.979c0.087,0.02,0.177,0.039,0.264,0.061
	c0.359-0.424,0.693-0.873,1.082-1.268c0.521-0.529,0.645-1.121,0.495-1.834c-0.497-2.361-0.964-4.729-1.45-7.093
	c-0.083-0.394-0.204-0.779-0.33-1.258c-0.063,0.146-0.091,0.191-0.1,0.239c-0.48,2.384-0.972,4.767-1.426,7.156
	c-0.113,0.597-0.313,1.312-0.095,1.804C59.688,99.592,60.355,100.256,60.891,100.979z M61.039,85.833
	c0.289-0.364,0.575-0.657,0.778-0.999c0.353-0.589,0.656-1.207,0.976-1.814c0.296-0.563-0.131-1.315-0.78-1.336
	c-0.725-0.022-1.45-0.014-2.175,0c-0.327,0.005-0.791,0.523-0.674,0.785C59.676,83.613,60.145,84.787,61.039,85.833z"/>
<path d="M64.095,10.931c1.154,0.184,2.311,0.362,3.464,0.553c2.618,0.432,5.051,1.271,7.021,3.157c0.21,0.202,0.53,0.378,0.814,0.4
	c2.767,0.217,5.189,1.191,7.062,3.284c2.139,2.391,3.986,4.999,4.978,8.078c0.802,2.493,1.48,5.035,2.037,7.592
	c0.422,1.938,0.568,3.936,0.834,5.907c0.217,1.62,0.18,3.255,0.499,4.88c0.427,2.174,0.118,4.377-0.318,6.542
	c-0.168,0.838-0.281,1.707-0.587,2.495c-0.374,0.96-0.817,1.934-1.431,2.751c-0.723,0.959-1.118,2.018-1.54,3.108
	c-0.825,2.137-1.698,4.271-3.521,5.814c-0.768,0.65-1.559,1.274-2.295,1.959c-0.296,0.273-0.605,0.647-0.682,1.023
	c-0.229,1.133-0.338,2.274,0.266,3.373c0.632,1.146,1.647,1.792,2.779,2.31c2.891,1.323,5.976,2.07,8.993,3.014
	c2.768,0.863,5.419,1.938,7.788,3.679c2.562,1.881,4.218,4.272,4.93,7.392c0.755,3.311,1.182,6.643,0.983,10.028
	c-0.138,2.325-0.501,4.638-1.443,6.794c-0.824,1.885-2.309,3.134-4.225,3.835c-2.845,1.043-5.806,1.62-8.786,2.094
	c-3.051,0.484-6.102,0.988-9.172,1.315c-3.814,0.408-7.646,0.649-11.473,0.943c-1.278,0.099-2.56,0.141-3.841,0.209
	c-2.051,0-4.104,0-6.156,0c-0.106-0.026-0.213-0.069-0.322-0.075c-3.252-0.196-6.505-0.376-9.756-0.589
	c-1.894-0.127-3.791-0.263-5.676-0.474c-2.957-0.329-5.919-0.64-8.855-1.117c-3.006-0.49-5.99-1.131-8.966-1.784
	c-1.462-0.321-2.6-1.199-3.509-2.417c-1.036-1.388-1.3-3.026-1.63-4.639c-0.262-1.288-0.388-2.603-0.575-3.904
	c0-0.933,0-1.865,0-2.799c0.035-0.255,0.073-0.508,0.104-0.764c0.23-1.882,0.382-3.778,0.711-5.644
	c0.274-1.55,0.653-3.087,1.484-4.479c1.733-2.905,4.381-4.748,7.378-5.994c2.686-1.116,5.53-1.866,8.329-2.694
	c2.406-0.713,4.642-1.708,6.553-3.359c0.742-0.64,1.212-1.382,1.068-2.43c-0.086-0.626-0.057-1.266-0.118-1.894
	c-0.021-0.208-0.112-0.451-0.255-0.595c-0.515-0.509-1.047-1.009-1.608-1.469c-1.629-1.331-2.84-2.942-3.729-4.871
	c-0.871-1.883-1.279-3.934-2.42-5.73c-1.247-1.963-1.649-4.289-2.174-6.539c-0.36-1.547-0.505-3.095-0.073-4.64
	c0.346-1.238,0.365-2.498,0.414-3.764c0.107-2.757,0.369-5.5,1.027-8.186c0.531-2.168,0.949-4.387,1.736-6.464
	c1.345-3.553,3.619-6.527,6.425-9.087c4.035-3.683,8.907-5.354,14.238-5.915c0.849-0.089,1.7-0.146,2.549-0.216
	C63.648,10.931,63.872,10.931,64.095,10.931z M63.809,109.067c3.929-0.171,7.176-0.243,10.413-0.467
	c5.675-0.392,11.331-1.011,16.935-2.007c2.435-0.432,4.836-1.064,7.236-1.661c1.469-0.366,2.313-1.36,2.698-2.837
	c0.673-2.583,0.737-5.202,0.542-7.832c-0.106-1.446-0.366-2.883-0.589-4.318c-0.437-2.803-2.042-4.759-4.431-6.188
	c-2.218-1.328-4.653-2.077-7.083-2.863c-2.569-0.83-5.154-1.624-7.679-2.575c-2.104-0.792-3.854-2.133-4.985-4.135
	c-1.389-2.455-1.315-5.026-0.513-7.638c0.296-0.958,0.854-1.723,1.637-2.347c0.803-0.639,1.614-1.275,2.346-1.991
	c0.523-0.513,1.05-1.096,1.346-1.751c0.688-1.524,1.251-3.105,1.833-4.676c0.144-0.39,0.311-0.695,0.626-0.998
	c0.486-0.468,0.948-1.03,1.22-1.641c1.024-2.3,1.2-4.753,1.06-7.23c-0.058-0.998-0.33-1.983-0.391-2.981
	c-0.202-3.316-0.451-6.622-1.22-9.868c-0.846-3.581-1.952-7.05-4.244-10.009c-0.613-0.793-1.285-1.552-2.003-2.252
	c-1.081-1.057-2.476-1.397-3.926-1.277c-1.158,0.095-1.966-0.271-2.688-1.159c-0.916-1.13-2.165-1.784-3.564-2.186
	c-3.062-0.878-6.158-0.907-9.25-0.309c-8.117,1.569-13.217,6.514-15.569,14.32c-1.254,4.163-1.7,8.474-1.707,12.823
	c0,0.257-0.061,0.513-0.1,0.769c-0.163,1.08-0.456,2.16-0.452,3.239c0.003,0.987,0.258,1.993,0.523,2.958
	c0.496,1.795,1.037,3.584,2.284,5.05c0.112,0.133,0.136,0.341,0.201,0.514c0.613,1.617,1.169,3.261,1.867,4.841
	c0.297,0.674,0.834,1.272,1.363,1.808c0.834,0.85,1.753,1.618,2.636,2.421c0.851,0.773,1.35,1.751,1.482,2.871
	c0.134,1.146,0.19,2.305,0.217,3.459c0.03,1.347-0.382,2.58-1.214,3.644c-1.787,2.285-4.176,3.772-6.827,4.8
	c-1.731,0.672-3.563,1.076-5.347,1.615c-2.568,0.778-5.123,1.576-7.436,3.015c-2.31,1.438-3.781,3.396-4.143,6.118
	c-0.188,1.423-0.368,2.848-0.497,4.276c-0.256,2.822-0.14,5.617,0.53,8.391c0.336,1.392,1.033,2.325,2.483,2.6
	c0.146,0.026,0.286,0.085,0.432,0.11c2.956,0.522,5.895,1.158,8.869,1.532c4.273,0.539,8.563,0.956,12.855,1.294
	C55.878,108.68,60.185,108.857,63.809,109.067z"/>
<path d="M60.303,80.27c0.298,0,0.598-0.018,0.895,0.002c0.527,0.037,1.214-0.098,1.548,0.181c0.834,0.696,1.643,1.504,1.918,2.621
	c0.085,0.344,0.004,0.798-0.158,1.122c-0.666,1.329-1.249,2.713-2.296,3.818c-0.103,0.108-0.097,0.376-0.059,0.552
	c0.709,3.335,1.409,6.672,2.163,9.997c0.27,1.187,0.11,2.25-0.717,3.118c-0.766,0.803-1.615,1.533-2.474,2.236
	c-0.491,0.403-1.072,0.366-1.615,0.005c-1.375-0.921-2.335-2.207-3.005-3.675c-0.229-0.505-0.133-1.222-0.022-1.81
	c0.637-3.33,1.317-6.651,2.002-9.971c0.072-0.345-0.018-0.561-0.186-0.859c-0.749-1.328-1.462-2.68-2.124-4.053
	c-0.12-0.249-0.049-0.701,0.106-0.953c0.458-0.741,0.989-1.438,1.525-2.126c0.101-0.13,0.354-0.191,0.539-0.197
	C58.997,80.255,59.649,80.27,60.303,80.27z"/>
</svg>
